# xmcd CD database file
#
# Track frame offsets:
#	150
#	16150
#	29628
#	51921
#	67503
#	86351
#	98261
#	128071
#	142126
#	163699
#
# Disc length: 2692 seconds
#
# Revision: 1
# Processed by: cddbd v1.5.2PL0 Copyright (c) Steve Scherf et al.
# Submitted via: CDex 1.70beta2
#
DISCID=750a820a
DTITLE=Bullfrog Brown with Steve Lury and Peeter Piik - Bullfrog Brown with Steve Lury and Peeter Piik
DYEAR=2009
DGENRE=Blues
TTITLE0=Blues for Breakfast
TTITLE1=Pumpkin Blues
TTITLE2=Papa Wolf
TTITLE3=Modern Times
TTITLE4=Dust in the Groove
TTITLE5=Narva Road Breakdown
TTITLE6=Snake Girl Blues
TTITLE7=Wicked Grin
TTITLE8=Breakfast with Steve
TTITLE9=24.00 Hours
EXTD=YEAR: 2009
EXTT0=
EXTT1=
EXTT2=
EXTT3=
EXTT4=
EXTT5=
EXTT6=
EXTT7=
EXTT8=
EXTT9=
PLAYORDER=
